<svg xmlns="http://www.w3.org/2000/svg" version="1.1" xmlns:xlink="http://www.w3.org/1999/xlink" width="512" height="512" x="0" y="0" viewBox="0 0 1024 1024" style="enable-background:new 0 0 512 512" xml:space="preserve"><g><path d="M107.5 201h94.1l-50-50v94.1l50-50h-94.1l50 50V151c0-12.8-5.6-26.3-14.6-35.4-8.7-8.7-22.9-15.2-35.4-14.6-12.9.6-26.3 4.8-35.4 14.6-9 9.8-14.6 21.8-14.6 35.4v94.1c0 27 22.9 50 50 50h94.1c27 0 50-22.9 50-50V151c0-27-22.9-50-50-50h-94.1c-12.8 0-26.3 5.6-35.4 14.6-8.7 8.7-15.2 22.9-14.6 35.4.6 12.9 4.8 26.3 14.6 35.4 9.8 9 21.9 14.6 35.4 14.6zM383.4 248.1h473.2c21.7 0 43.5.3 65.2 0h.9c12.8 0 26.3-5.6 35.4-14.6 8.7-8.7 15.2-22.9 14.6-35.4-.6-12.9-4.8-26.3-14.6-35.4-9.8-9-21.8-14.6-35.4-14.6H449.5c-21.7 0-43.5-.3-65.2 0h-.9c-12.8 0-26.3 5.6-35.4 14.6-8.7 8.7-15.2 22.9-14.6 35.4.6 12.9 4.8 26.3 14.6 35.4 9.8 8.9 21.8 14.6 35.4 14.6zM107.5 514.9h94.1l-50-50V559l50-50h-94.1l50 50v-94.1c0-12.8-5.6-26.3-14.6-35.4-8.7-8.7-22.9-15.2-35.4-14.6-12.9.6-26.3 4.8-35.4 14.6-9 9.8-14.6 21.8-14.6 35.4V559c0 27 22.9 50 50 50h94.1c27 0 50-22.9 50-50v-94.1c0-27-22.9-50-50-50h-94.1c-12.8 0-26.3 5.6-35.4 14.6-8.7 8.7-15.2 22.9-14.6 35.4.6 12.9 4.8 26.3 14.6 35.4 9.8 9 21.9 14.6 35.4 14.6zM383.4 562h473.2c21.7 0 43.5.3 65.2 0h.9c12.8 0 26.3-5.6 35.4-14.6 8.7-8.7 15.2-22.9 14.6-35.4-.6-12.9-4.8-26.3-14.6-35.4-9.8-9-21.8-14.6-35.4-14.6H449.5c-21.7 0-43.5-.3-65.2 0h-.9c-12.8 0-26.3 5.6-35.4 14.6-8.7 8.7-15.2 22.9-14.6 35.4.6 12.9 4.8 26.3 14.6 35.4 9.8 8.9 21.8 14.6 35.4 14.6zM107.5 828.9h94.1l-50-50V873l50-50h-94.1l50 50v-94.1c0-12.8-5.6-26.3-14.6-35.4-8.7-8.7-22.9-15.2-35.4-14.6-12.9.6-26.3 4.8-35.4 14.6-9 9.8-14.6 21.8-14.6 35.4V873c0 27 22.9 50 50 50h94.1c27 0 50-22.9 50-50v-94.1c0-27-22.9-50-50-50h-94.1c-12.8 0-26.3 5.6-35.4 14.6-8.7 8.7-15.2 22.9-14.6 35.4.6 12.9 4.8 26.3 14.6 35.4 9.8 8.9 21.9 14.6 35.4 14.6zM383.4 875.9h473.2c21.7 0 43.5.3 65.2 0h.9c12.8 0 26.3-5.6 35.4-14.6 8.7-8.7 15.2-22.9 14.6-35.4-.6-12.9-4.8-26.3-14.6-35.4-9.8-9-21.8-14.6-35.4-14.6H449.5c-21.7 0-43.5-.3-65.2 0h-.9c-12.8 0-26.3 5.6-35.4 14.6-8.7 8.7-15.2 22.9-14.6 35.4.6 12.9 4.8 26.3 14.6 35.4 9.8 8.9 21.8 14.6 35.4 14.6z" fill="#ffffff" opacity="1" data-original="#ffffff"></path></g></svg>
