<svg xmlns="http://www.w3.org/2000/svg" version="1.1" xmlns:xlink="http://www.w3.org/1999/xlink" width="512" height="512" x="0" y="0" viewBox="0 0 512 512" style="enable-background:new 0 0 512 512" xml:space="preserve"><g><path d="m356 60-28.284-28.284A40 40 0 0 0 299.431 20H256c-22.091 0-40 17.909-40 40v116c0 22.091 17.909 40 40 40h160c22.091 0 40-17.909 40-40v-76c0-22.091-17.909-40-40-40h-60zM356 336l-28.284-28.284A40 40 0 0 0 299.431 296H256c-22.091 0-40 17.909-40 40v116c0 22.091 17.909 40 40 40h160c22.091 0 40-17.909 40-40v-76c0-22.091-17.909-40-40-40h-60zM136 412H96c-22.091 0-40-17.909-40-40V20" style="stroke-width:40;stroke-linecap:round;stroke-linejoin:round;stroke-miterlimit:10;" fill="none" stroke="#ffffff" stroke-width="40" stroke-linecap="round" stroke-linejoin="round" stroke-miterlimit="10" data-original="#ffffff"></path><path d="M136 140H96c-22.091 0-40-17.909-40-40" style="stroke-width:40;stroke-linecap:round;stroke-linejoin:round;stroke-miterlimit:10;" fill="none" stroke="#ffffff" stroke-width="40" stroke-linecap="round" stroke-linejoin="round" stroke-miterlimit="10" data-original="#ffffff"></path></g></svg>
