<?xml version="1.0" encoding="UTF-8"?>
<svg width="43px" height="44px" viewBox="0 0 43 44" version="1.1" xmlns="http://www.w3.org/2000/svg" xmlns:xlink="http://www.w3.org/1999/xlink">
    <title>Group 41</title>
    <g id="Page-1" stroke="none" stroke-width="1" fill="none" fill-rule="evenodd">
        <g id="COZ-desktop" transform="translate(-510.000000, -6681.000000)">
            <g id="FOOTER" transform="translate(-4.000000, 6499.000000)">
                <g id="Group-50" transform="translate(514.000000, 182.500000)">
                    <g id="Group-41">
                        <path d="M39.2084545,42.5599995 L3.35172907,42.5599995 C1.50058185,42.5599995 0,41.0594176 0,39.2082704 L0,3.35172907 C0,1.50058185 1.50058185,0 3.35172907,0 L39.2084545,0 C41.0596017,0 42.5599995,1.50058185 42.5599995,3.35172907 L42.5599995,39.2082704 C42.5599995,41.0594176 41.0596017,42.5599995 39.2084545,42.5599995" id="Fill-1" fill="#1F2B2D"></path>
                        <path d="M19.4971848,27.8982884 L12.4086853,20.8787362 L15.9315551,17.3904077 L19.4971848,20.9212633 L23.0630005,17.3904077 L26.5856843,20.8787362 L19.4971848,27.8982884 Z M37.2399995,10.3283284 L33.7173157,6.83999991 L30.1515,10.3708555 L26.5856843,6.83999991 L23.0200546,10.3708555 L19.4971848,6.88252703 L5.31999993,20.9212633 L19.4971848,34.9599996 L33.6743698,20.9212633 L30.1085541,17.3904077 L37.2399995,10.3283284 L37.2399995,10.3283284 Z" id="Fill-4" fill="#4CFFB3"></path>
                    </g>
                </g>
            </g>
        </g>
    </g>
</svg>