<?xml version="1.0" encoding="utf-8"?>
<!-- Generator: Adobe Illustrator 25.0.1, SVG Export Plug-In . SVG Version: 6.00 Build 0)  -->
<svg version="1.1" id="Слой_1" xmlns="http://www.w3.org/2000/svg" xmlns:xlink="http://www.w3.org/1999/xlink" x="0px" y="0px"
	 viewBox="0 0 512 512" style="enable-background:new 0 0 512 512;" xml:space="preserve">
<style type="text/css">
	.st0{fill:#F14668;}
</style>
<g>
	<path class="st0" d="M155.6,356.4c8.3,8.3,21.8,8.3,30.2,0l70.3-70.3l70.3,70.3c8.5,8.2,22,8,30.2-0.5c8-8.3,8-21.4,0-29.6
		L286.2,256l70.3-70.3c8.5-8.2,8.7-21.7,0.5-30.2c-8.2-8.5-21.7-8.7-30.2-0.5c-0.2,0.2-0.4,0.3-0.5,0.5L256,225.8l-70.3-70.3
		c-8.2-8.5-21.7-8.7-30.2-0.5s-8.7,21.7-0.5,30.2c0.2,0.2,0.3,0.4,0.5,0.5l70.3,70.3l-70.3,70.3
		C147.3,334.6,147.3,348.1,155.6,356.4z"/>
</g>
</svg>
