<svg xmlns="http://www.w3.org/2000/svg" viewBox="0 0 368 512"><defs><style>.cls-1{fill:#e2e7f0;}.cls-2{fill:#9dacba;}.cls-3{fill:#c9d5e3;}</style></defs><g id="Слой_2" data-name="Слой 2"><g id="Слой_1-2" data-name="Слой 1"><path class="cls-1" d="M32,0A32,32,0,0,0,0,32V480a32,32,0,0,0,32,32H336a32,32,0,0,0,32-32V128L240,0Z"/><path class="cls-2" d="M272,128h96L240,0V96A32,32,0,0,0,272,128Z"/><path class="cls-2" d="M120,160H248a8,8,0,0,1,8,8h0a8,8,0,0,1-8,8H120a8,8,0,0,1-8-8h0A8,8,0,0,1,120,160Z"/><path class="cls-2" d="M72,328H296a8,8,0,0,1,8,8h0a8,8,0,0,1-8,8H72a8,8,0,0,1-8-8h0A8,8,0,0,1,72,328Z"/><path class="cls-2" d="M72,424H200a8,8,0,0,1,8,8h0a8,8,0,0,1-8,8H72a8,8,0,0,1-8-8h0A8,8,0,0,1,72,424Z"/><path class="cls-2" d="M72,376H296a8,8,0,0,1,8,8h0a8,8,0,0,1-8,8H72a8,8,0,0,1-8-8h0A8,8,0,0,1,72,376Z"/><path class="cls-2" d="M72,280H296a8,8,0,0,1,8,8h0a8,8,0,0,1-8,8H72a8,8,0,0,1-8-8h0A8,8,0,0,1,72,280Z"/><path class="cls-2" d="M72,232H296a8,8,0,0,1,8,8h0a8,8,0,0,1-8,8H72a8,8,0,0,1-8-8h0A8,8,0,0,1,72,232Z"/><path class="cls-3" d="M272,128l75.28,75.28A16,16,0,0,1,352,214.64V480a16,16,0,0,1-16,16H48a16,16,0,0,0-16,16H336a32,32,0,0,0,32-32V128Z"/></g></g></svg>