<svg xmlns="http://www.w3.org/2000/svg" viewBox="0 0 512 400"><defs><style>.cls-1{fill:#ffb125;}.cls-2{fill:#fcd354;}</style></defs><g id="Слой_2" data-name="Слой 2"><g id="Слой_1-2" data-name="Слой 1"><g id="Folder"><path class="cls-1" d="M472,24H195.2A8,8,0,0,0,189,37l35.2,44a39.78,39.78,0,0,0,31.21,15H504a8,8,0,0,0,8-8V64A40.05,40.05,0,0,0,472,24Z"/><path class="cls-2" d="M512,80H255.36a24,24,0,0,1-18.71-9l-40-50A55.75,55.75,0,0,0,153,0H40A40,40,0,0,0,0,40H0V360a40,40,0,0,0,40,40H472a40,40,0,0,0,40-40Z"/></g></g></g></svg>