<?xml version="1.0" encoding="utf-8"?>
<!-- Generator: Adobe Illustrator 25.0.1, SVG Export Plug-In . SVG Version: 6.00 Build 0)  -->
<svg version="1.1" id="Слой_1" xmlns="http://www.w3.org/2000/svg" xmlns:xlink="http://www.w3.org/1999/xlink" x="0px" y="0px"
	 viewBox="0 0 186 187" style="enable-background:new 0 0 186 187;" xml:space="preserve">
<style type="text/css">
	.st0{fill:#00D1B2;}
	.st1{fill-rule:evenodd;clip-rule:evenodd;fill:#00D1B2;}
</style>
<g>
	<path id="Rectangle-Copy" class="st0" d="M60,10.3c-27.6,0-50,22.4-50,50v66c0,27.6,22.4,50,50,50h66c27.6,0,50-22.4,50-50v-66
		c0-27.6-22.4-50-50-50H60z M60,0.3h66c33.1,0,60,26.9,60,60v66c0,33.1-26.9,60-60,60H60c-33.1,0-60-26.9-60-60v-66
		C0,27.2,26.9,0.3,60,0.3z"/>
	<path id="Rectangle" class="st1" d="M82.2,44.3h21.6c21.1,0,38.2,17.1,38.2,38.2v21.6c0,21.1-17.1,38.2-38.2,38.2H82.2
		c-21.1,0-38.2-17.1-38.2-38.2V82.6C44,61.5,61.1,44.3,82.2,44.3z"/>
</g>
</svg>
