<svg xmlns="http://www.w3.org/2000/svg" viewBox="0 0 184.21 51.8"><defs><style>.cls-1{fill:#01e397;}.cls-2{fill:#f9f9f9;}.cls-3{fill:#00e599;}.cls-4{fill:#00af92;}</style></defs><g id="Слой_2" data-name="Слой 2"><g id="svg8050"><g id="Layer_2" data-name="Layer 2"><g id="g8036"><path id="path8032" class="cls-1" d="M146.6,18.3v7.2h10.9V29H146.6V39.7h-4V14.8h18v3.5Z"/><path id="path8034" class="cls-1" d="M180,15.7a10.43,10.43,0,0,1,4,3.8l-3,2.7a8.09,8.09,0,0,0-2.6-3.3,8.81,8.81,0,0,0-4.3-1,6.82,6.82,0,0,0-4,1.1,2.8,2.8,0,0,0-1.4,2.6,2.59,2.59,0,0,0,1.4,2.4,13.43,13.43,0,0,0,4.9,1.5,18.26,18.26,0,0,1,5.4,1.6,6.2,6.2,0,0,1,2.9,2.3,5.92,5.92,0,0,1,.9,3.4,6.53,6.53,0,0,1-1.3,3.8,7.86,7.86,0,0,1-3.5,2.6,13.75,13.75,0,0,1-5.2.8c-5,0-8.6-1.6-10.7-5l2.9-2.8a7.66,7.66,0,0,0,3.1,3.3,9.43,9.43,0,0,0,4.7,1,8.16,8.16,0,0,0,4.2-.9,2.91,2.91,0,0,0,1.5-2.6,2.51,2.51,0,0,0-1.3-2.2,23,23,0,0,0-4.8-1.5,23.35,23.35,0,0,1-5.5-1.5,7.64,7.64,0,0,1-3-2.4,5.92,5.92,0,0,1-.9-3.4,6.47,6.47,0,0,1,1.2-3.8,8.3,8.3,0,0,1,3.3-2.8,14,14,0,0,1,11.1.3Z"/></g><path id="path8038" class="cls-2" d="M73.3,16.3A9.22,9.22,0,0,1,76,23.4V39.3H72V24.8c0-2.6-.5-4.5-1.6-5.7a6.1,6.1,0,0,0-4.5-1.7,9.05,9.05,0,0,0-3.7.8,7.35,7.35,0,0,0-2.9,2.9A10.41,10.41,0,0,0,58.2,26V39.3h-4V15.1l3.6,1.5v1.7A7.89,7.89,0,0,1,61.4,15a9.71,9.71,0,0,1,4.9-1.1A10.33,10.33,0,0,1,73.3,16.3Z"/><path id="path8040" class="cls-2" d="M104.4,28.3H85.6a9,9,0,0,0,2.5,5.9,7.89,7.89,0,0,0,5.6,2.1,10.26,10.26,0,0,0,4.6-.9,5.64,5.64,0,0,0,2.5-2.8l3.3,1.8a10.26,10.26,0,0,1-4,4,13.14,13.14,0,0,1-6.4,1.4c-3.7,0-6.7-1.1-8.8-3.4s-3.2-5.5-3.2-9.6,1-7.2,3-9.5,5-3.4,8.7-3.4a11.63,11.63,0,0,1,6.1,1.5,10.14,10.14,0,0,1,3.8,4.2,13.1,13.1,0,0,1,1.3,5.9A12.49,12.49,0,0,1,104.4,28.3Zm-16.3-9a9.13,9.13,0,0,0-2.4,5.5h15.1a10.16,10.16,0,0,0-2.3-5.5,6.89,6.89,0,0,0-5.1-1.9A7.47,7.47,0,0,0,88.1,19.3Z"/><path id="path8042" class="cls-2" d="M131,17.3c2.2,2.3,3.2,5.5,3.2,9.5s-1,7.3-3.2,9.6a11.53,11.53,0,0,1-8.8,3.4,11.76,11.76,0,0,1-8.9-3.4c-2.2-2.3-3.2-5.5-3.2-9.6s1.1-7.2,3.2-9.5,5.1-3.4,8.9-3.4S128.9,15,131,17.3Zm-14.8,2.6a10.49,10.49,0,0,0-2.1,6.9,10.59,10.59,0,0,0,2.1,7,7.49,7.49,0,0,0,6,2.6,7.28,7.28,0,0,0,5.9-2.6,10.59,10.59,0,0,0,2.1-7,10.49,10.49,0,0,0-2.1-6.9,7.28,7.28,0,0,0-5.9-2.6A7.49,7.49,0,0,0,116.2,19.9Z"/><polygon id="polygon8044" class="cls-3" points="46.8 7.9 24.8 0 0 9.1 0 43.7 22.5 51.8 22.5 16.9 46.8 7.9"/><polygon id="polygon8046" class="cls-4" points="24.3 17.9 24.3 36.8 46.8 44.9 46.8 9.6 24.3 17.9"/></g></g></g></svg>