<svg xmlns="http://www.w3.org/2000/svg" xmlns:xlink="http://www.w3.org/1999/xlink" version="1.1" width="512" height="512" x="0" y="0" viewBox="0 0 24 24" style="enable-background:new 0 0 512 512" xml:space="preserve"><g><path xmlns="http://www.w3.org/2000/svg" d="m8 3c.2807 0 .51462.09942.70175.29825.19883.18713.29825.42105.29825.70175 0 .26901-.09942.50292-.29825.70175-.18713.19883-.42105.29825-.70175.29825h-1c-.39766 0-.74854.08187-1.05263.24561-.30409.15205-.53801.38012-.70176.68421-.16374.3041-.24561.66082-.24561 1.07018v10c0 .3977.08187.7485.24561 1.0526.16375.3041.39767.538.70176.7018.30409.1637.65497.2456 1.05263.2456h1c.2807 0 .51462.0994.70175.2982.19883.1872.29825.4211.29825.7018 0 .269-.09942.5029-.29825.7018-.18713.1988-.42105.2982-.70175.2982h-1c-.71345 0-1.38012-.1813-2-.5439-.60819-.3625-1.09357-.8479-1.45614-1.4561-.36257-.6199-.54386-1.2865-.54386-2v-10c0-.72515.18129-1.39181.54386-2 .36257-.61988.84795-1.10526 1.45614-1.45614.61988-.36257 1.28655-.54386 2-.54386zm8.7018 13.7018c-.1755.1988-.4094.2982-.7018.2982-.269 0-.5029-.0994-.7018-.2982-.1988-.1989-.2982-.4328-.2982-.7018 0-.2924.0994-.5263.2982-.7018l3.8948-3.8947c.0585-.0585.0994.0292.1228.2632.0234.2222.0234.4503 0 .6842-.0234.2222-.0643.3041-.1228.2456l-3.8948-3.89475c-.1988-.18713-.2982-.42105-.2982-.70175s.0994-.51462.2982-.70176c.1989-.19882.4328-.29824.7018-.29824.2924 0 .5263.09942.7018.29824l3.8947 3.89476c.2222.2105.3333.4795.3333.807 0 .3158-.1111.5848-.3333.807zm3.2982-5.7018c.2807 0 .5146.0994.7018.2982.1988.1872.2982.4211.2982.7018 0 .269-.0994.5029-.2982.7018-.1872.1988-.4211.2982-.7018.2982h-12c-.26901 0-.50292-.0994-.70175-.2982-.19883-.1989-.29825-.4328-.29825-.7018 0-.2807.09942-.5146.29825-.7018.19883-.1988.43274-.2982.70175-.2982z" fill="#000000" data-original="#000000"/></g></svg>