<svg xmlns="http://www.w3.org/2000/svg" viewBox="0 0 184.2 51.8"><defs><style>.cls-1{isolation:isolate;}.cls-2{fill:#01e397;}.cls-3{fill:#010032;}.cls-4{fill:#00e599;}.cls-5{fill:#00af92;}</style></defs><title>NeoFS</title><g id="Layer_2" data-name="Layer 2"><g id="Layer_1-2" data-name="Layer 1"><g class="cls-1"><path class="cls-2" d="M146.6,18.3v7.2h10.9V29H146.6V39.7h-4V14.8h18v3.5Z"/><path class="cls-2" d="M180,15.7a10.4,10.4,0,0,1,4,3.8l-3,2.7a8.1,8.1,0,0,0-2.6-3.3,8.8,8.8,0,0,0-4.3-1,6.8,6.8,0,0,0-4,1.1,2.8,2.8,0,0,0-1.4,2.6,2.6,2.6,0,0,0,1.4,2.4,13.5,13.5,0,0,0,4.9,1.5,18.4,18.4,0,0,1,5.4,1.6,6.2,6.2,0,0,1,2.9,2.3,5.9,5.9,0,0,1,.9,3.4,6.5,6.5,0,0,1-1.3,3.8,7.9,7.9,0,0,1-3.5,2.6,13.9,13.9,0,0,1-5.2.8c-5,0-8.6-1.6-10.7-5l2.9-2.8a7.7,7.7,0,0,0,3.1,3.3,9.4,9.4,0,0,0,4.7,1,8.2,8.2,0,0,0,4.2-.9,2.9,2.9,0,0,0,1.5-2.6,2.5,2.5,0,0,0-1.3-2.2,22.9,22.9,0,0,0-4.8-1.5,23.5,23.5,0,0,1-5.5-1.5,7.6,7.6,0,0,1-3-2.4,5.9,5.9,0,0,1-.9-3.4,6.4,6.4,0,0,1,1.2-3.8,8.3,8.3,0,0,1,3.3-2.8,12.1,12.1,0,0,1,5.2-1A12.2,12.2,0,0,1,180,15.7Z"/></g><path class="cls-3" d="M73.3,16.3A9.2,9.2,0,0,1,76,23.4V39.3H72V24.8c0-2.6-.5-4.5-1.6-5.7a6.1,6.1,0,0,0-4.5-1.7,9.1,9.1,0,0,0-3.7.8,7.3,7.3,0,0,0-2.9,2.9A10.4,10.4,0,0,0,58.2,26V39.3h-4V15.1l3.6,1.5v1.7A7.9,7.9,0,0,1,61.4,15a9.8,9.8,0,0,1,4.9-1.1A10.3,10.3,0,0,1,73.3,16.3Z"/><path class="cls-3" d="M104.4,28.3H85.6a9,9,0,0,0,2.5,5.9,7.9,7.9,0,0,0,5.6,2.1,10.2,10.2,0,0,0,4.6-.9,5.7,5.7,0,0,0,2.5-2.8l3.3,1.8a10.3,10.3,0,0,1-4,4,13.2,13.2,0,0,1-6.4,1.4c-3.7,0-6.7-1.1-8.8-3.4s-3.2-5.5-3.2-9.6,1-7.2,3-9.5,5-3.4,8.7-3.4a11.7,11.7,0,0,1,6.1,1.5,10.2,10.2,0,0,1,3.8,4.2,13.1,13.1,0,0,1,1.3,5.9A12.7,12.7,0,0,1,104.4,28.3Zm-16.3-9a9.1,9.1,0,0,0-2.4,5.5h15.1a10.2,10.2,0,0,0-2.3-5.5,6.9,6.9,0,0,0-5.1-1.9A7.5,7.5,0,0,0,88.1,19.3Z"/><path class="cls-3" d="M131,17.3c2.2,2.3,3.2,5.5,3.2,9.5s-1,7.3-3.2,9.6-5.1,3.4-8.8,3.4-6.7-1.1-8.9-3.4-3.2-5.5-3.2-9.6,1.1-7.2,3.2-9.5,5.1-3.4,8.9-3.4S128.9,15,131,17.3Zm-14.8,2.6a10.5,10.5,0,0,0-2.1,6.9,10.6,10.6,0,0,0,2.1,7,7.5,7.5,0,0,0,6,2.6,7.3,7.3,0,0,0,5.9-2.6,10.6,10.6,0,0,0,2.1-7,10.5,10.5,0,0,0-2.1-6.9,7.3,7.3,0,0,0-5.9-2.6A7.5,7.5,0,0,0,116.2,19.9Z"/><polygon class="cls-4" points="0 9.1 0 43.7 22.5 51.8 22.5 16.9 46.8 7.9 24.8 0 0 9.1"/><polygon class="cls-5" points="24.3 17.9 24.3 36.8 46.8 44.9 46.8 9.6 24.3 17.9"/></g></g></svg>