<svg xmlns="http://www.w3.org/2000/svg" viewBox="0 0 416.88 448"><g id="Слой_2" data-name="Слой 2"><g id="Слой_1-2" data-name="Слой 1"><path d="M208.45,144a80,80,0,1,0,80,80A80.09,80.09,0,0,0,208.45,144Zm0,128a48,48,0,1,1,48-48A48.06,48.06,0,0,1,208.45,272Z"/><path d="M392.86,256.58l-8.41-4.87a32,32,0,0,1,0-55.42l8.41-4.87a48,48,0,0,0,17.57-65.56l-16-27.72a48,48,0,0,0-65.57-17.56l-8.41,4.84a32,32,0,0,1-48-27.71V48a48.06,48.06,0,0,0-48-48h-32a48.06,48.06,0,0,0-48,48v9.73a32,32,0,0,1-48,27.71L88,80.58A48.07,48.07,0,0,0,22.45,98.14l-16,27.72A48,48,0,0,0,24,191.42l8.43,4.87a32,32,0,0,1,0,55.42L24,256.58A48,48,0,0,0,6.46,322.14l16,27.72A48.06,48.06,0,0,0,88,367.42l8.42-4.84a32,32,0,0,1,48,27.71V400a48.06,48.06,0,0,0,48,48h32a48.06,48.06,0,0,0,48-48v-9.73a32,32,0,0,1,48-27.71l8.41,4.86a48.07,48.07,0,0,0,65.57-17.56l16-27.72a48,48,0,0,0-17.57-65.56Zm-10.14,49.56-16,27.72a16,16,0,0,1-21.86,5.85l-8.41-4.86a64,64,0,0,0-96,55.42V400a16,16,0,0,1-16,16h-32a16,16,0,0,1-16-16v-9.73a64,64,0,0,0-96-55.42L72,339.71a16,16,0,0,1-21.85-5.85l-16-27.72A16,16,0,0,1,40,284.29l8.42-4.87a64,64,0,0,0,0-110.84L40,163.71a16,16,0,0,1-5.85-21.85l16-27.72A16,16,0,0,1,72,108.29l8.42,4.86a64,64,0,0,0,96-55.42V48a16,16,0,0,1,16-16h32a16,16,0,0,1,16,16v9.73a64,64,0,0,0,96,55.42l8.41-4.86a16,16,0,0,1,21.86,5.85l16,27.72a16,16,0,0,1-5.86,21.85l-8.41,4.87a64,64,0,0,0,0,110.84l8.41,4.87a16,16,0,0,1,5.86,21.85Z"/></g></g></svg>