<svg xmlns="http://www.w3.org/2000/svg" xmlns:xlink="http://www.w3.org/1999/xlink" version="1.1" width="512" height="512" x="0" y="0" viewBox="0 0 53 53" style="enable-background:new 0 0 512 512" xml:space="preserve" class=""><g><g xmlns="http://www.w3.org/2000/svg"><g fill="#f34624"><path d="m41.9280548 36.5423698c-1.0185242 1.299305-2.889534 1.4552498-4.1050606.2394867-.9615135-.9617043-1.0895309-2.4831772-.2223625-3.626091 3.6945724-4.7721481 3.2498474-11.613842-1.0262108-15.8899002-2.3603935-2.3603926-5.5588779-3.6089678-8.8599834-3.5233631l1.4538193 1.1629705c1.1973171.9750586 1.3854389 2.6683607.4447269 3.8655748-.9644432 1.178957-2.7066364 1.375845-3.8655739.4276047l-5.6614971-4.5326633c-1.6761818-1.333972-1.9499092-3.7799692-.6157284-5.456151l4.515543-5.678514c.9919701-1.1974218 2.6682568-1.3684223 3.865469-.4276059 1.1801968.9406078 1.3854389 2.6852729.4447269 3.8653648l-1.0262127 1.2828178c4.8917885-.2223635 9.6809502 1.6250277 13.1872978 5.1312704 6.2430878 6.2430879 6.8759385 16.1978684 1.4710465 23.1591988z" fill="#363636" data-original="#f34624" class=""/><path d="m33.5298157 43.7945518-4.515543 5.6785126c-1.0054741 1.2189941-2.723156 1.3414574-3.865469.4276047-1.1801968-.9406052-1.3854389-2.6852722-.4447269-3.8655739l1.0262127-1.2828178c-4.8917866.2225723-9.6809521-1.6248169-13.1872988-5.1312675-6.2430878-6.242878-6.875936-16.1976604-1.4710436-23.1589928 1.0362282-1.3218889 2.9143715-1.4303846 4.1050577-.2394848.9615145.9617043 1.0895338 2.4831772.2223635 3.6260891-3.6945734 4.7719402-3.2498465 11.6136341 1.0262127 15.8896942 2.3603916 2.3605995 5.558876 3.6091766 8.8599815 3.523571l-1.4538193-1.1629715c-1.1973171-.9750595-1.3854389-2.6683617-.4447269-3.8655739.983429-1.2021637 2.730608-1.3562317 3.8655739-.4276047l5.661499 4.5324554c1.6761818 1.334179 1.9499054 3.7801782.6157265 5.4563599z" fill="#363636" data-original="#f34624" class=""/></g></g></g></svg>