<?xml version="1.0" encoding="utf-8"?>
<!-- Generator: Adobe Illustrator 25.0.1, SVG Export Plug-In . SVG Version: 6.00 Build 0)  -->
<svg version="1.1" id="Слой_1" xmlns="http://www.w3.org/2000/svg" xmlns:xlink="http://www.w3.org/1999/xlink" x="0px" y="0px"
	 viewBox="0 0 511.9 511.9" style="enable-background:new 0 0 511.9 511.9;" xml:space="preserve">
<style type="text/css">
	.st0{fill:#F0CEC3;}
	.st1{fill:#FC5758;}
	.st2{fill-rule:evenodd;clip-rule:evenodd;fill:#FFFFFF;}
</style>
<g id="Слой_2_1_">
	<g id="Слой_1-2">
		<circle class="st0" cx="256" cy="256" r="256"/>
		<circle class="st1" cx="256" cy="260.5" r="238.5"/>
		<path class="st2" d="M337.2,149.9h-35.5V131c0-5.5-4.5-10-10-10h-71.4c-5.5,0-10,4.5-10,10v18.9h-35.5c-14.8,0-26.8,12-26.8,26.8
			v16.9c0,5.5,4.5,10,10,10h4.3v149.3c0,21,17,38.1,38.1,38.1h111.3c21,0,38.1-17.1,38.1-38.1V203.6h4.3c5.5,0,10-4.5,10-10v-16.9
			C364,161.9,352,149.9,337.2,149.9L337.2,149.9z M230.3,141h51.4v8.9h-51.4V141z M168,176.7c0.1-3.7,3.1-6.8,6.9-6.9h162.4
			c3.7,0.1,6.8,3.1,6.9,6.9v6.9H168V176.7z M329.8,352.9c0,10-8.1,18.1-18.1,18.1l0,0H200.4c-10,0-18.1-8.1-18.1-18.1V203.6h147.5
			V352.9z M246,342.9V231.6c0-5.5,4.5-10,10-10c5.5,0,10,4.5,10,10v111.3c0,5.5-4.5,10-10,10C250.5,352.9,246,348.4,246,342.9
			L246,342.9z M204.1,342.9V231.6c0-5.5,4.5-10,10-10s10,4.5,10,10v111.3c0,5.5-4.5,10-10,10S204.1,348.4,204.1,342.9L204.1,342.9z
			 M287.9,342.9V231.6c0-5.5,4.5-10,10-10s10,4.5,10,10v111.3c0,5.5-4.5,10-10,10S287.9,348.4,287.9,342.9L287.9,342.9z"/>
	</g>
</g>
</svg>
