<?xml version="1.0" encoding="utf-8"?>
<!-- Generator: Adobe Illustrator 25.0.1, SVG Export Plug-In . SVG Version: 6.00 Build 0)  -->
<svg version="1.1" id="Слой_1" xmlns="http://www.w3.org/2000/svg" xmlns:xlink="http://www.w3.org/1999/xlink" x="0px" y="0px"
	 viewBox="0 0 1000 1000" style="enable-background:new 0 0 1000 1000;" xml:space="preserve">
<style type="text/css">
	.st0{fill:#F72B2B;}
</style>
<path class="st0" d="M844.9,233.4c-115.1,0.5-230.2,0.3-345.3,0.3v-0.1H154.3c-11.9,0-23.1-1.6-20.1,17.4
	c17,107.7,33.2,215.5,49.8,323.2c16.3,106.4,35.2,212.4,48.1,319.1c6.7,55.8,53.9,107.7,118,106.7c99.2-1.6,198.3-0.1,297.5-0.5
	c66.7-0.3,109.5-38.5,119.3-104.6c19.8-132.8,39.7-265.6,59.8-398.4c12.2-80.7,24.2-161.4,37.5-241.9
	C867.1,236.4,861.4,233.4,844.9,233.4L844.9,233.4z M527.7,382.8c-0.7,160.9-0.1,321.8-0.2,482.7h-55.1
	c-0.1-80.1-0.1-160.3-0.1-240.4h0.2c0-82.4,0.5-164.8-0.4-247.2c0-2.5,0.1-4.6,0.3-6.6H527C527.5,374.6,527.7,378.5,527.7,382.8
	L527.7,382.8z M238.8,371.3h55c1.3,3.8,2.1,8.3,2.8,13.6c14.1,113.8,30.4,227.3,46.2,340.9c6.5,46.6,13.8,93,19.5,139.7h-55.7
	c-15-107.8-30.1-215.5-45-323.3c-7.8-56.3-15-112.7-22.6-169.1L238.8,371.3L238.8,371.3z M732.6,571.5c-13.6,98-28.4,195.8-40.2,294
	h-55.6c22.7-161.6,44.3-323.3,66.4-484.9c0.4-2.8,0.4-6.1,0.7-9.3h56.9c-0.6,4-1.8,8.3-2.3,11.8C750.1,446,741.4,508.8,732.6,571.5
	L732.6,571.5z M941.5,157.8c-10.8-25.7-28.5-46.8-48.2-66.1c-21.5-21-45.8-33-77.4-32.2c-60.8,1.5-121.6,0-182.4,0.5
	c-13.2,0.1-20.4-1.8-24.5-16.6c-8.5-30.6-27.7-43.2-59.3-43.3c-34-0.1-68-0.2-102,0.1c-29.8,0.2-49.4,14.1-57.6,42.8
	c-3.9,13.6-10,17.6-24.1,17.4c-60.8-1-121.6-1-182.3-0.4C130.2,60.5,66.9,113.3,55,165.5c-3.6,16.1,2,25.4,17.7,28.3
	c7.8,1.4,15.8,1.5,23.7,1.5c133.9,0.1,267.8,0.1,401.6,0h182.3l184.5,0.1c18.1,0,36.3,0.5,54.2-0.9
	C943.6,192.6,950.9,180.1,941.5,157.8L941.5,157.8z"/>
</svg>
