<svg xmlns="http://www.w3.org/2000/svg" viewBox="0 0 511.92 511.92"><defs><style>.cls-1{fill:#ff3f5b;}.cls-2{fill:#fff;fill-rule:evenodd;}</style></defs><g id="Слой_2" data-name="Слой 2"><g id="Слой_1-2" data-name="Слой 1"><circle class="cls-1" cx="255.96" cy="255.96" r="255.96"/><path class="cls-2" d="M337.2,149.87H301.69V131a10,10,0,0,0-10-10H220.34a10,10,0,0,0-10,10v18.91H174.83A26.89,26.89,0,0,0,148,176.72v16.85a10,10,0,0,0,10,10h4.3V352.88A38.13,38.13,0,0,0,200.36,391H311.67a38.12,38.12,0,0,0,38.08-38.08V203.57h4.3a10,10,0,0,0,10-10V176.72a26.87,26.87,0,0,0-26.84-26.85ZM230.34,141h51.35v8.91H230.34ZM168,176.72a7,7,0,0,1,6.85-6.85H337.2a7,7,0,0,1,6.85,6.85v6.85H168ZM329.75,352.88A18.1,18.1,0,0,1,311.67,371H200.36a18.1,18.1,0,0,1-18.08-18.08V203.57H329.75Zm-83.73-10V231.61a10,10,0,1,1,20,0V342.92a10,10,0,0,1-20,0Zm-41.87,0V231.61a10,10,0,0,1,20,0V342.92a10,10,0,0,1-20,0Zm83.74,0V231.61a10,10,0,0,1,20,0V342.92a10,10,0,0,1-20,0Z"/></g></g></svg>